<?xml version="1.0" standalone="no"?>
<!DOCTYPE svg PUBLIC "-//W3C//DTD SVG 20010904//EN"
 "http://www.w3.org/TR/2001/REC-SVG-20010904/DTD/svg10.dtd">
<svg version="1.0" xmlns="http://www.w3.org/2000/svg"
 width="949.000000pt" height="1280.000000pt" viewBox="0 0 949.000000 1280.000000"
 preserveAspectRatio="xMidYMid meet">
<metadata>
Created by potrace 1.15, written by Peter Selinger 2001-2017
</metadata>
<g transform="translate(0.000000,1280.000000) scale(0.100000,-0.100000)"
fill="#000000" stroke="none">
<path d="M4620 12094 c-19 -2 -78 -9 -130 -14 -510 -56 -1017 -338 -1311 -730
-67 -89 -155 -232 -208 -338 -69 -137 -203 -437 -246 -550 -28 -72 -79 -153
-127 -199 -31 -31 -309 -232 -350 -254 -11 -6 -60 -40 -108 -75 -90 -66 -100
-71 -100 -54 0 6 -16 35 -35 65 -27 43 -40 55 -60 55 -18 0 -35 13 -62 51 -38
51 -95 89 -133 89 -31 0 -95 -36 -119 -66 -33 -42 -36 -87 -11 -157 12 -34 22
-78 22 -97 -1 -38 63 -150 86 -150 16 0 15 -15 -3 -30 -8 -7 -15 -23 -15 -35
0 -25 -18 -38 -205 -146 -126 -73 -139 -85 -210 -194 -173 -263 -248 -533
-226 -808 11 -136 24 -191 69 -312 50 -135 71 -175 91 -175 17 0 520 248 545
269 6 5 70 39 141 75 72 36 159 84 194 106 78 48 100 52 46 8 -190 -157 -301
-266 -532 -529 -92 -103 -259 -335 -350 -484 -243 -399 -424 -855 -517 -1301
-124 -594 -109 -1199 45 -1819 33 -132 135 -446 194 -595 142 -359 386 -746
691 -1095 194 -223 433 -440 624 -569 106 -71 152 -104 167 -119 10 -10 4 -30
-28 -97 -44 -90 -110 -247 -165 -392 -29 -79 -40 -94 -108 -160 -76 -73 -76
-73 -76 -126 0 -67 18 -101 72 -137 56 -38 146 -46 197 -17 49 27 86 101 85
171 -1 52 2 59 70 152 103 142 259 376 269 402 3 10 46 -9 251 -108 194 -93
238 -110 496 -189 206 -63 296 -84 510 -120 280 -48 677 -68 921 -47 169 15
350 38 399 51 19 5 69 14 110 20 83 12 269 57 400 97 124 38 405 146 518 199
l97 45 70 -78 c39 -43 139 -149 223 -237 97 -101 152 -167 152 -180 0 -71 45
-143 111 -176 125 -64 264 38 243 179 -8 54 -76 134 -129 151 -27 9 -43 28
-84 98 -29 48 -99 161 -156 251 -58 90 -102 167 -100 172 3 4 33 25 68 45 342
208 841 675 1077 1010 250 355 388 613 538 999 89 232 185 621 217 880 24 194
25 208 31 460 6 239 3 295 -32 590 -47 384 -182 840 -351 1180 -185 372 -239
463 -396 680 -186 254 -470 566 -627 687 -40 31 -33 51 8 21 15 -11 59 -36 97
-55 39 -20 113 -59 165 -87 149 -80 465 -235 573 -280 125 -53 144 -52 179 14
36 66 83 214 104 323 21 110 14 307 -16 436 -40 177 -171 450 -267 554 -30 33
-88 76 -157 117 -60 36 -111 65 -113 65 -2 0 -21 11 -42 24 -35 23 -38 28 -37
68 1 27 13 63 29 92 15 27 27 61 27 75 0 15 12 51 26 81 14 30 28 68 31 85 11
65 -50 144 -123 159 -48 10 -106 -18 -162 -80 -27 -30 -57 -54 -66 -54 -9 0
-32 -24 -51 -54 -19 -30 -39 -58 -45 -61 -14 -9 -251 147 -446 292 -93 69
-179 181 -229 298 -46 110 -272 561 -317 632 -18 29 -53 85 -78 125 -67 108
-186 251 -296 358 -147 141 -188 174 -311 250 -153 95 -265 146 -503 230 -28
10 -148 41 -225 59 -99 22 -403 44 -485 35z m270 -183 c283 -23 641 -151 902
-324 102 -68 328 -257 328 -275 0 -4 15 -23 33 -42 121 -128 210 -277 420
-702 132 -266 179 -352 227 -412 63 -78 151 -151 232 -192 27 -13 48 -26 48
-29 0 -2 -69 -1 -154 2 -174 7 -294 -5 -421 -43 -92 -28 -209 -76 -278 -117
-123 -70 -273 -217 -372 -364 l-49 -73 24 -25 c13 -14 81 -66 152 -116 71 -50
127 -94 124 -96 -3 -3 -80 20 -173 50 -146 48 -354 100 -433 109 -34 4 -41 53
-11 75 12 8 21 25 21 37 0 43 -33 53 -220 65 -279 19 -280 19 -280 43 0 28 74
404 112 565 33 145 52 178 97 170 14 -3 82 -17 151 -31 130 -28 170 -27 170 1
0 9 12 30 27 45 21 22 28 40 31 86 3 41 0 61 -9 69 -14 11 -413 95 -458 97
-27 1 -37 -22 -43 -101 -3 -47 -3 -47 37 -61 22 -8 46 -16 54 -18 8 -3 -5 -14
-30 -27 -29 -14 -50 -34 -61 -57 -9 -19 -47 -186 -83 -370 -36 -184 -68 -346
-71 -359 l-5 -24 -102 8 c-56 4 -124 8 -152 9 l-50 1 -3 -43 c-2 -24 -11 -57
-20 -73 -17 -30 -17 -30 -127 -35 -333 -14 -708 -88 -1063 -208 -90 -31 -166
-56 -169 -56 -3 0 32 24 78 53 248 158 329 212 374 251 l49 43 -30 39 c-16 21
-42 58 -57 82 -50 77 -164 187 -265 255 -225 152 -417 207 -722 208 -170 0
-174 1 -135 16 51 20 177 115 216 162 34 42 110 192 169 334 65 158 234 494
302 602 103 164 250 324 403 441 124 94 350 215 480 257 288 94 499 120 785
98z"/>
</g>
</svg>
